<svg width="1000" height="300" xmlns="http://www.w3.org/2000/svg" xmlns:xlink="http://www.w3.org/1999/xlink" version="1.1" baseProfile="full" viewBox="0 0 1000 300">
<rect width="1000" height="300" x="0" y="0" id="0" fill="#ffffff"></rect>
<path d="M58.2 271.5L931.8 271.5" fill="none" stroke="#E0E6F1"></path>
<path d="M58.2 218.5L931.8 218.5" fill="none" stroke="#E0E6F1"></path>
<path d="M58.2 165.5L931.8 165.5" fill="none" stroke="#E0E6F1"></path>
<path d="M58.2 113.5L931.8 113.5" fill="none" stroke="#E0E6F1"></path>
<path d="M58.2 60.5L931.8 60.5" fill="none" stroke="#E0E6F1"></path>
<path d="M58.2 271.5L931.8 271.5" fill="none" stroke="#6E7079" stroke-linecap="round"></path>
<path d="M61.5 271L61.5 276" fill="none" stroke="#6E7079"></path>
<path d="M108.5 271L108.5 276" fill="none" stroke="#6E7079"></path>
<path d="M155.5 271L155.5 276" fill="none" stroke="#6E7079"></path>
<path d="M202.5 271L202.5 276" fill="none" stroke="#6E7079"></path>
<path d="M249.5 271L249.5 276" fill="none" stroke="#6E7079"></path>
<path d="M296.5 271L296.5 276" fill="none" stroke="#6E7079"></path>
<path d="M344.5 271L344.5 276" fill="none" stroke="#6E7079"></path>
<path d="M391.5 271L391.5 276" fill="none" stroke="#6E7079"></path>
<path d="M438.5 271L438.5 276" fill="none" stroke="#6E7079"></path>
<path d="M485.5 271L485.5 276" fill="none" stroke="#6E7079"></path>
<path d="M532.5 271L532.5 276" fill="none" stroke="#6E7079"></path>
<path d="M579.5 271L579.5 276" fill="none" stroke="#6E7079"></path>
<path d="M626.5 271L626.5 276" fill="none" stroke="#6E7079"></path>
<path d="M673.5 271L673.5 276" fill="none" stroke="#6E7079"></path>
<path d="M720.5 271L720.5 276" fill="none" stroke="#6E7079"></path>
<path d="M767.5 271L767.5 276" fill="none" stroke="#6E7079"></path>
<path d="M814.5 271L814.5 276" fill="none" stroke="#6E7079"></path>
<path d="M861.5 271L861.5 276" fill="none" stroke="#6E7079"></path>
<path d="M908.5 271L908.5 276" fill="none" stroke="#6E7079"></path>
<text dominant-baseline="central" text-anchor="end" style="font-size:12px;font-family:sans-serif;" transform="translate(50.16 271)" fill="#6E7079">0</text>
<text dominant-baseline="central" text-anchor="end" style="font-size:12px;font-family:sans-serif;" transform="translate(50.16 218.25)" fill="#6E7079">60</text>
<text dominant-baseline="central" text-anchor="end" style="font-size:12px;font-family:sans-serif;" transform="translate(50.16 165.5)" fill="#6E7079">120</text>
<text dominant-baseline="central" text-anchor="end" style="font-size:12px;font-family:sans-serif;" transform="translate(50.16 112.75)" fill="#6E7079">180</text>
<text dominant-baseline="central" text-anchor="end" style="font-size:12px;font-family:sans-serif;" transform="translate(50.16 60)" fill="#6E7079">240</text>
<text dominant-baseline="central" text-anchor="start" style="font-size:12px;font-family:sans-serif;" transform="translate(939.84 271)" fill="#6E7079">0</text>
<text dominant-baseline="central" text-anchor="start" style="font-size:12px;font-family:sans-serif;" transform="translate(939.84 218.25)" fill="#6E7079">60</text>
<text dominant-baseline="central" text-anchor="start" style="font-size:12px;font-family:sans-serif;" transform="translate(939.84 165.5)" fill="#6E7079">120</text>
<text dominant-baseline="central" text-anchor="start" style="font-size:12px;font-family:sans-serif;" transform="translate(939.84 112.75)" fill="#6E7079">180</text>
<text dominant-baseline="central" text-anchor="start" style="font-size:12px;font-family:sans-serif;" transform="translate(939.84 60)" fill="#6E7079">240</text>
<text dominant-baseline="central" text-anchor="middle" style="font-size:12px;font-family:sans-serif;" y="6" transform="translate(61.5203 279)" fill="#6E7079">1km</text>
<text dominant-baseline="central" text-anchor="middle" style="font-size:12px;font-family:sans-serif;" y="6" transform="translate(108.5646 279)" fill="#6E7079">8km</text>
<text dominant-baseline="central" text-anchor="middle" style="font-size:12px;font-family:sans-serif;" y="6" transform="translate(155.6089 279)" fill="#6E7079">15km</text>
<text dominant-baseline="central" text-anchor="middle" style="font-size:12px;font-family:sans-serif;" y="6" transform="translate(202.6532 279)" fill="#6E7079">22km</text>
<text dominant-baseline="central" text-anchor="middle" style="font-size:12px;font-family:sans-serif;" y="6" transform="translate(249.6975 279)" fill="#6E7079">29km</text>
<text dominant-baseline="central" text-anchor="middle" style="font-size:12px;font-family:sans-serif;" y="6" transform="translate(296.7418 279)" fill="#6E7079">36km</text>
<text dominant-baseline="central" text-anchor="middle" style="font-size:12px;font-family:sans-serif;" y="6" transform="translate(343.7862 279)" fill="#6E7079">43km</text>
<text dominant-baseline="central" text-anchor="middle" style="font-size:12px;font-family:sans-serif;" y="6" transform="translate(390.8305 279)" fill="#6E7079">50km</text>
<text dominant-baseline="central" text-anchor="middle" style="font-size:12px;font-family:sans-serif;" y="6" transform="translate(437.8748 279)" fill="#6E7079">57km</text>
<text dominant-baseline="central" text-anchor="middle" style="font-size:12px;font-family:sans-serif;" y="6" transform="translate(484.9191 279)" fill="#6E7079">64km</text>
<text dominant-baseline="central" text-anchor="middle" style="font-size:12px;font-family:sans-serif;" y="6" transform="translate(531.9634 279)" fill="#6E7079">71km</text>
<text dominant-baseline="central" text-anchor="middle" style="font-size:12px;font-family:sans-serif;" y="6" transform="translate(579.0077 279)" fill="#6E7079">78km</text>
<text dominant-baseline="central" text-anchor="middle" style="font-size:12px;font-family:sans-serif;" y="6" transform="translate(626.052 279)" fill="#6E7079">85km</text>
<text dominant-baseline="central" text-anchor="middle" style="font-size:12px;font-family:sans-serif;" y="6" transform="translate(673.0963 279)" fill="#6E7079">92km</text>
<text dominant-baseline="central" text-anchor="middle" style="font-size:12px;font-family:sans-serif;" y="6" transform="translate(720.1406 279)" fill="#6E7079">99km</text>
<text dominant-baseline="central" text-anchor="middle" style="font-size:12px;font-family:sans-serif;" y="6" transform="translate(767.1849 279)" fill="#6E7079">106km</text>
<text dominant-baseline="central" text-anchor="middle" style="font-size:12px;font-family:sans-serif;" y="6" transform="translate(814.2292 279)" fill="#6E7079">113km</text>
<text dominant-baseline="central" text-anchor="middle" style="font-size:12px;font-family:sans-serif;" y="6" transform="translate(861.2735 279)" fill="#6E7079">120km</text>
<text dominant-baseline="central" text-anchor="middle" style="font-size:12px;font-family:sans-serif;" y="6" transform="translate(908.3178 279)" fill="#6E7079">127km</text>
<path d="M59.2 271l4.6 0l0 -210.1l-4.6 0Z" fill="rgb(227,73,2)" fill-opacity="0.3"></path>
<path d="M65.9 271l4.6 0l0 -210.1l-4.6 0Z" fill="rgb(227,73,2)" fill-opacity="0.3"></path>
<path d="M72.6 271l4.6 0l0 -210.1l-4.6 0Z" fill="rgb(227,73,2)" fill-opacity="0.3"></path>
<path d="M79.4 271l4.6 0l0 -210.1l-4.6 0Z" fill="rgb(227,73,2)" fill-opacity="0.3"></path>
<path d="M86.1 271l4.6 0l0 -210.1l-4.6 0Z" fill="rgb(227,73,2)" fill-opacity="0.3"></path>
<path d="M92.8 271l4.6 0l0 -208.4l-4.6 0Z" fill="rgb(227,73,2)" fill-opacity="0.3"></path>
<path d="M99.5 271l4.6 0l0 -208.4l-4.6 0Z" fill="rgb(227,73,2)" fill-opacity="0.3"></path>
<path d="M106.2 271l4.6 0l0 -206.6l-4.6 0Z" fill="rgb(227,73,2)" fill-opacity="0.3"></path>
<path d="M113 271l4.6 0l0 -206.6l-4.6 0Z" fill="rgb(227,73,2)" fill-opacity="0.3"></path>
<path d="M119.7 271l4.6 0l0 -205.7l-4.6 0Z" fill="rgb(227,73,2)" fill-opacity="0.3"></path>
<path d="M126.4 271l4.6 0l0 -203.1l-4.6 0Z" fill="rgb(227,73,2)" fill-opacity="0.3"></path>
<path d="M133.1 271l4.6 0l0 -201.3l-4.6 0Z" fill="rgb(227,73,2)" fill-opacity="0.3"></path>
<path d="M139.8 271l4.6 0l0 -200.4l-4.6 0Z" fill="rgb(227,73,2)" fill-opacity="0.3"></path>
<path d="M146.6 271l4.6 0l0 -197.8l-4.6 0Z" fill="rgb(227,73,2)" fill-opacity="0.3"></path>
<path d="M153.3 271l4.6 0l0 -194.3l-4.6 0Z" fill="rgb(227,73,2)" fill-opacity="0.3"></path>
<path d="M160 271l4.6 0l0 -184.6l-4.6 0Z" fill="rgb(227,73,2)" fill-opacity="0.3"></path>
<path d="M166.7 271l4.6 0l0 -170.6l-4.6 0Z" fill="rgb(227,73,2)" fill-opacity="0.3"></path>
<path d="M173.5 271l4.6 0l0 -161.8l-4.6 0Z" fill="rgb(227,73,2)" fill-opacity="0.3"></path>
<path d="M180.2 271l4.6 0l0 -148.6l-4.6 0Z" fill="rgb(227,73,2)" fill-opacity="0.3"></path>
<path d="M186.9 271l4.6 0l0 -146.8l-4.6 0Z" fill="rgb(227,73,2)" fill-opacity="0.3"></path>
<path d="M193.6 271l4.6 0l0 -140.7l-4.6 0Z" fill="rgb(227,73,2)" fill-opacity="0.3"></path>
<path d="M200.3 271l4.6 0l0 -134.5l-4.6 0Z" fill="rgb(227,73,2)" fill-opacity="0.3"></path>
<path d="M207.1 271l4.6 0l0 -128.4l-4.6 0Z" fill="rgb(227,73,2)" fill-opacity="0.3"></path>
<path d="M213.8 271l4.6 0l0 -116.9l-4.6 0Z" fill="rgb(227,73,2)" fill-opacity="0.3"></path>
<path d="M220.5 271l4.6 0l0 -104.6l-4.6 0Z" fill="rgb(227,73,2)" fill-opacity="0.3"></path>
<path d="M227.2 271l4.6 0l0 -91.4l-4.6 0Z" fill="rgb(227,73,2)" fill-opacity="0.3"></path>
<path d="M233.9 271l4.6 0l0 -78.2l-4.6 0Z" fill="rgb(227,73,2)" fill-opacity="0.3"></path>
<path d="M240.7 271l4.6 0l0 -65.9l-4.6 0Z" fill="rgb(227,73,2)" fill-opacity="0.3"></path>
<path d="M247.4 271l4.6 0l0 -62.4l-4.6 0Z" fill="rgb(227,73,2)" fill-opacity="0.3"></path>
<path d="M254.1 271l4.6 0l0 -56.3l-4.6 0Z" fill="rgb(227,73,2)" fill-opacity="0.3"></path>
<path d="M260.8 271l4.6 0l0 -52.7l-4.6 0Z" fill="rgb(227,73,2)" fill-opacity="0.3"></path>
<path d="M267.5 271l4.6 0l0 -49.2l-4.6 0Z" fill="rgb(227,73,2)" fill-opacity="0.3"></path>
<path d="M274.3 271l4.6 0l0 -46.6l-4.6 0Z" fill="rgb(227,73,2)" fill-opacity="0.3"></path>
<path d="M281 271l4.6 0l0 -44l-4.6 0Z" fill="rgb(227,73,2)" fill-opacity="0.3"></path>
<path d="M287.7 271l4.6 0l0 -39.6l-4.6 0Z" fill="rgb(227,73,2)" fill-opacity="0.3"></path>
<path d="M294.4 271l4.6 0l0 -35.2l-4.6 0Z" fill="rgb(227,73,2)" fill-opacity="0.8"></path>
<path d="M301.1 271l4.6 0l0 -31.7l-4.6 0Z" fill="rgb(227,73,2)" fill-opacity="0.3"></path>
<path d="M307.9 271l4.6 0l0 -30.8l-4.6 0Z" fill="rgb(227,73,2)" fill-opacity="0.3"></path>
<path d="M314.6 271l4.6 0l0 -29.9l-4.6 0Z" fill="rgb(227,73,2)" fill-opacity="0.3"></path>
<path d="M321.3 271l4.6 0l0 -28.1l-4.6 0Z" fill="rgb(227,73,2)" fill-opacity="0.3"></path>
<path d="M328 271l4.6 0l0 -27.3l-4.6 0Z" fill="rgb(227,73,2)" fill-opacity="0.3"></path>
<path d="M334.7 271l4.6 0l0 -25.5l-4.6 0Z" fill="rgb(227,73,2)" fill-opacity="0.3"></path>
<path d="M341.5 271l4.6 0l0 -23.7l-4.6 0Z" fill="rgb(227,73,2)" fill-opacity="0.3"></path>
<path d="M348.2 271l4.6 0l0 -22.9l-4.6 0Z" fill="rgb(227,73,2)" fill-opacity="0.3"></path>
<path d="M354.9 271l4.6 0l0 -21.1l-4.6 0Z" fill="rgb(227,73,2)" fill-opacity="0.3"></path>
<path d="M361.6 271l4.6 0l0 -21.1l-4.6 0Z" fill="rgb(227,73,2)" fill-opacity="0.3"></path>
<path d="M368.4 271l4.6 0l0 -21.1l-4.6 0Z" fill="rgb(227,73,2)" fill-opacity="0.3"></path>
<path d="M375.1 271l4.6 0l0 -18.5l-4.6 0Z" fill="rgb(227,73,2)" fill-opacity="0.3"></path>
<path d="M381.8 271l4.6 0l0 -18.5l-4.6 0Z" fill="rgb(227,73,2)" fill-opacity="0.3"></path>
<path d="M388.5 271l4.6 0l0 -17.6l-4.6 0Z" fill="rgb(227,73,2)" fill-opacity="0.3"></path>
<path d="M395.2 271l4.6 0l0 -15.8l-4.6 0Z" fill="rgb(227,73,2)" fill-opacity="0.3"></path>
<path d="M402 271l4.6 0l0 -14.9l-4.6 0Z" fill="rgb(227,73,2)" fill-opacity="0.3"></path>
<path d="M408.7 271l4.6 0l0 -14.9l-4.6 0Z" fill="rgb(227,73,2)" fill-opacity="0.3"></path>
<path d="M415.4 271l4.6 0l0 -13.2l-4.6 0Z" fill="rgb(227,73,2)" fill-opacity="0.3"></path>
<path d="M422.1 271l4.6 0l0 -13.2l-4.6 0Z" fill="rgb(227,73,2)" fill-opacity="0.3"></path>
<path d="M428.8 271l4.6 0l0 -13.2l-4.6 0Z" fill="rgb(227,73,2)" fill-opacity="0.3"></path>
<path d="M435.6 271l4.6 0l0 -13.2l-4.6 0Z" fill="rgb(227,73,2)" fill-opacity="0.3"></path>
<path d="M442.3 271l4.6 0l0 -13.2l-4.6 0Z" fill="rgb(227,73,2)" fill-opacity="0.3"></path>
<path d="M449 271l4.6 0l0 -11.4l-4.6 0Z" fill="rgb(227,73,2)" fill-opacity="0.3"></path>
<path d="M455.7 271l4.6 0l0 -11.4l-4.6 0Z" fill="rgb(227,73,2)" fill-opacity="0.3"></path>
<path d="M462.4 271l4.6 0l0 -11.4l-4.6 0Z" fill="rgb(227,73,2)" fill-opacity="0.3"></path>
<path d="M469.2 271l4.6 0l0 -11.4l-4.6 0Z" fill="rgb(227,73,2)" fill-opacity="0.3"></path>
<path d="M475.9 271l4.6 0l0 -11.4l-4.6 0Z" fill="rgb(227,73,2)" fill-opacity="0.3"></path>
<path d="M482.6 271l4.6 0l0 -9.7l-4.6 0Z" fill="rgb(227,73,2)" fill-opacity="0.3"></path>
<path d="M489.3 271l4.6 0l0 -9.7l-4.6 0Z" fill="rgb(227,73,2)" fill-opacity="0.3"></path>
<path d="M496 271l4.6 0l0 -9.7l-4.6 0Z" fill="rgb(227,73,2)" fill-opacity="0.3"></path>
<path d="M502.8 271l4.6 0l0 -8.8l-4.6 0Z" fill="rgb(227,73,2)" fill-opacity="0.3"></path>
<path d="M509.5 271l4.6 0l0 -7l-4.6 0Z" fill="rgb(227,73,2)" fill-opacity="0.3"></path>
<path d="M516.2 271l4.6 0l0 -7l-4.6 0Z" fill="rgb(227,73,2)" fill-opacity="0.3"></path>
<path d="M522.9 271l4.6 0l0 -7l-4.6 0Z" fill="rgb(227,73,2)" fill-opacity="0.3"></path>
<path d="M529.6 271l4.6 0l0 -5.3l-4.6 0Z" fill="rgb(227,73,2)" fill-opacity="0.3"></path>
<path d="M536.4 271l4.6 0l0 -5.3l-4.6 0Z" fill="rgb(227,73,2)" fill-opacity="0.3"></path>
<path d="M543.1 271l4.6 0l0 -5.3l-4.6 0Z" fill="rgb(227,73,2)" fill-opacity="0.3"></path>
<path d="M549.8 271l4.6 0l0 -4.4l-4.6 0Z" fill="rgb(227,73,2)" fill-opacity="0.3"></path>
<path d="M556.5 271l4.6 0l0 -4.4l-4.6 0Z" fill="rgb(227,73,2)" fill-opacity="0.3"></path>
<path d="M563.2 271l4.6 0l0 -4.4l-4.6 0Z" fill="rgb(227,73,2)" fill-opacity="0.3"></path>
<path d="M570 271l4.6 0l0 -3.5l-4.6 0Z" fill="rgb(227,73,2)" fill-opacity="0.3"></path>
<path d="M576.7 271l4.6 0l0 -3.5l-4.6 0Z" fill="rgb(227,73,2)" fill-opacity="0.3"></path>
<path d="M583.4 271l4.6 0l0 -3.5l-4.6 0Z" fill="rgb(227,73,2)" fill-opacity="0.3"></path>
<path d="M590.1 271l4.6 0l0 -3.5l-4.6 0Z" fill="rgb(227,73,2)" fill-opacity="0.3"></path>
<path d="M596.9 271l4.6 0l0 -3.5l-4.6 0Z" fill="rgb(227,73,2)" fill-opacity="0.3"></path>
<path d="M603.6 271l4.6 0l0 -2.6l-4.6 0Z" fill="rgb(227,73,2)" fill-opacity="0.3"></path>
<path d="M610.3 271l4.6 0l0 -2.6l-4.6 0Z" fill="rgb(227,73,2)" fill-opacity="0.3"></path>
<path d="M617 271l4.6 0l0 -2.6l-4.6 0Z" fill="rgb(227,73,2)" fill-opacity="0.3"></path>
<path d="M623.7 271l4.6 0l0 -2.6l-4.6 0Z" fill="rgb(227,73,2)" fill-opacity="0.3"></path>
<path d="M630.5 271l4.6 0l0 -2.6l-4.6 0Z" fill="rgb(227,73,2)" fill-opacity="0.3"></path>
<path d="M637.2 271l4.6 0l0 -2.6l-4.6 0Z" fill="rgb(227,73,2)" fill-opacity="0.3"></path>
<path d="M643.9 271l4.6 0l0 -2.6l-4.6 0Z" fill="rgb(227,73,2)" fill-opacity="0.3"></path>
<path d="M650.6 271l4.6 0l0 -2.6l-4.6 0Z" fill="rgb(227,73,2)" fill-opacity="0.3"></path>
<path d="M657.3 271l4.6 0l0 -2.6l-4.6 0Z" fill="rgb(227,73,2)" fill-opacity="0.3"></path>
<path d="M664.1 271l4.6 0l0 -2.6l-4.6 0Z" fill="rgb(227,73,2)" fill-opacity="0.3"></path>
<path d="M670.8 271l4.6 0l0 -2.6l-4.6 0Z" fill="rgb(227,73,2)" fill-opacity="0.3"></path>
<path d="M677.5 271l4.6 0l0 -2.6l-4.6 0Z" fill="rgb(227,73,2)" fill-opacity="0.3"></path>
<path d="M684.2 271l4.6 0l0 -2.6l-4.6 0Z" fill="rgb(227,73,2)" fill-opacity="0.3"></path>
<path d="M690.9 271l4.6 0l0 -2.6l-4.6 0Z" fill="rgb(227,73,2)" fill-opacity="0.3"></path>
<path d="M697.7 271l4.6 0l0 -2.6l-4.6 0Z" fill="rgb(227,73,2)" fill-opacity="0.3"></path>
<path d="M704.4 271l4.6 0l0 -2.6l-4.6 0Z" fill="rgb(227,73,2)" fill-opacity="0.3"></path>
<path d="M711.1 271l4.6 0l0 -2.6l-4.6 0Z" fill="rgb(227,73,2)" fill-opacity="0.3"></path>
<path d="M717.8 271l4.6 0l0 -2.6l-4.6 0Z" fill="rgb(227,73,2)" fill-opacity="0.3"></path>
<path d="M724.5 271l4.6 0l0 -2.6l-4.6 0Z" fill="rgb(227,73,2)" fill-opacity="0.3"></path>
<path d="M731.3 271l4.6 0l0 -2.6l-4.6 0Z" fill="rgb(227,73,2)" fill-opacity="0.3"></path>
<path d="M738 271l4.6 0l0 -2.6l-4.6 0Z" fill="rgb(227,73,2)" fill-opacity="0.3"></path>
<path d="M744.7 271l4.6 0l0 -2.6l-4.6 0Z" fill="rgb(227,73,2)" fill-opacity="0.3"></path>
<path d="M751.4 271l4.6 0l0 -2.6l-4.6 0Z" fill="rgb(227,73,2)" fill-opacity="0.3"></path>
<path d="M758.1 271l4.6 0l0 -2.6l-4.6 0Z" fill="rgb(227,73,2)" fill-opacity="0.3"></path>
<path d="M764.9 271l4.6 0l0 -2.6l-4.6 0Z" fill="rgb(227,73,2)" fill-opacity="0.3"></path>
<path d="M771.6 271l4.6 0l0 -2.6l-4.6 0Z" fill="rgb(227,73,2)" fill-opacity="0.3"></path>
<path d="M778.3 271l4.6 0l0 -2.6l-4.6 0Z" fill="rgb(227,73,2)" fill-opacity="0.3"></path>
<path d="M785 271l4.6 0l0 -2.6l-4.6 0Z" fill="rgb(227,73,2)" fill-opacity="0.3"></path>
<path d="M791.7 271l4.6 0l0 -2.6l-4.6 0Z" fill="rgb(227,73,2)" fill-opacity="0.3"></path>
<path d="M798.5 271l4.6 0l0 -2.6l-4.6 0Z" fill="rgb(227,73,2)" fill-opacity="0.3"></path>
<path d="M805.2 271l4.6 0l0 -2.6l-4.6 0Z" fill="rgb(227,73,2)" fill-opacity="0.3"></path>
<path d="M811.9 271l4.6 0l0 -1.8l-4.6 0Z" fill="rgb(227,73,2)" fill-opacity="0.3"></path>
<path d="M818.6 271l4.6 0l0 -1.8l-4.6 0Z" fill="rgb(227,73,2)" fill-opacity="0.3"></path>
<path d="M825.4 271l4.6 0l0 -1.8l-4.6 0Z" fill="rgb(227,73,2)" fill-opacity="0.3"></path>
<path d="M832.1 271l4.6 0l0 -1.8l-4.6 0Z" fill="rgb(227,73,2)" fill-opacity="0.3"></path>
<path d="M838.8 271l4.6 0l0 -1.8l-4.6 0Z" fill="rgb(227,73,2)" fill-opacity="0.3"></path>
<path d="M845.5 271l4.6 0l0 -1.8l-4.6 0Z" fill="rgb(227,73,2)" fill-opacity="0.3"></path>
<path d="M852.2 271l4.6 0l0 -1.8l-4.6 0Z" fill="rgb(227,73,2)" fill-opacity="0.3"></path>
<path d="M859 271l4.6 0l0 -1.8l-4.6 0Z" fill="rgb(227,73,2)" fill-opacity="0.3"></path>
<path d="M865.7 271l4.6 0l0 -1.8l-4.6 0Z" fill="rgb(227,73,2)" fill-opacity="0.3"></path>
<path d="M872.4 271l4.6 0l0 -1.8l-4.6 0Z" fill="rgb(227,73,2)" fill-opacity="0.3"></path>
<path d="M879.1 271l4.6 0l0 -1.8l-4.6 0Z" fill="rgb(227,73,2)" fill-opacity="0.3"></path>
<path d="M885.8 271l4.6 0l0 -1.8l-4.6 0Z" fill="rgb(227,73,2)" fill-opacity="0.3"></path>
<path d="M892.6 271l4.6 0l0 -1.8l-4.6 0Z" fill="rgb(227,73,2)" fill-opacity="0.3"></path>
<path d="M899.3 271l4.6 0l0 -1.8l-4.6 0Z" fill="rgb(227,73,2)" fill-opacity="0.3"></path>
<path d="M906 271l4.6 0l0 -1.8l-4.6 0Z" fill="rgb(227,73,2)" fill-opacity="0.3"></path>
<path d="M912.7 271l4.6 0l0 -1.8l-4.6 0Z" fill="rgb(227,73,2)" fill-opacity="0.3"></path>
<path d="M919.4 271l4.6 0l0 -0.9l-4.6 0Z" fill="rgb(227,73,2)" fill-opacity="0.3"></path>
<path d="M926.2 271l4.6 0l0 0l-4.6 0Z" fill="rgb(227,73,2)" fill-opacity="0.3"></path>
<path d="M-5 -5l226.9 0l0 24l-226.9 0Z" transform="translate(391.54 5)" fill="rgb(0,0,0)" fill-opacity="0" stroke="#ccc" stroke-width="0"></path>
<path d="M3.5 0L21.5 0A3.5 3.5 0 0 1 25 3.5L25 10.5A3.5 3.5 0 0 1 21.5 14L3.5 14A3.5 3.5 0 0 1 0 10.5L0 3.5A3.5 3.5 0 0 1 3.5 0" transform="translate(391.54 5)" fill="rgb(227,73,2)" fill-opacity="0.3"></path>
<text dominant-baseline="central" text-anchor="start" style="font-size:12px;font-family:sans-serif;" xml:space="preserve" x="30" y="7" transform="translate(391.54 5)" fill="#333">Times completed</text>
<path d="M0 7L25 7" transform="translate(524.1 5)" fill="#000" stroke="#E34902" stroke-width="2" stroke-linecap="butt" stroke-miterlimit="10"></path>
<path d="M18.1 7A5.6 5.6 0 1 1 18.1 6.4A5.6 5.6 0 0 1 18.1 7" transform="translate(524.1 5)" fill="#fff" stroke="#E34902" stroke-width="2" stroke-linecap="butt" stroke-miterlimit="10"></path>
<text dominant-baseline="central" text-anchor="start" style="font-size:12px;font-family:sans-serif;" x="30" y="7" transform="translate(524.1 5)" fill="#333">Eddington</text>
<path d="M-0.54 -0.89A0.6 0.6 0 1 1 0.54 -0.89C0.39 -0.56 0 -0.42 0 0C0 -0.42 -0.39 -0.56 -0.54 -0.89Z" transform="matrix(25,0,0,25,296.7418,231.7125)" fill="rgb(227,73,2)" fill-opacity="0.8"></path>
<text dominant-baseline="central" text-anchor="middle" style="font-size:12px;font-family:sans-serif;" transform="translate(296.7418 205.5696)" fill="#eee" stroke="rgb(227,73,2)" stroke-width="2" paint-order="stroke" stroke-opacity="0.8" stroke-miterlimit="2">36</text>
<g clip-path="url(#zr0-c0)">
<path d="M61.5 270.1L68.2 269.2L75 268.4L81.7 267.5L88.4 266.6L95.1 265.7L101.8 264.8L108.6 264L115.3 263.1L122 262.2L128.7 261.3L135.4 260.5L142.2 259.6L148.9 258.7L155.6 257.8L162.3 256.9L169.1 256.1L175.8 255.2L182.5 254.3L189.2 253.4L195.9 252.5L202.7 251.7L209.4 250.8L216.1 249.9L222.8 249L229.5 248.1L236.3 247.3L243 246.4L249.7 245.5L256.4 244.6L263.1 243.7L269.9 242.9L276.6 242L283.3 241.1L290 240.2L296.7 239.4L303.5 238.5L310.2 237.6L316.9 236.7L323.6 235.8L330.3 235L337.1 234.1L343.8 233.2L350.5 232.3L357.2 231.4L363.9 230.6L370.7 229.7L377.4 228.8L384.1 227.9L390.8 227L397.6 226.2L404.3 225.3L411 224.4L417.7 223.5L424.4 222.6L431.2 221.8L437.9 220.9L444.6 220L451.3 219.1L458 218.3L464.8 217.4L471.5 216.5L478.2 215.6L484.9 214.7L491.6 213.9L498.4 213L505.1 212.1L511.8 211.2L518.5 210.3L525.2 209.5L532 208.6L538.7 207.7L545.4 206.8L552.1 205.9L558.8 205.1L565.6 204.2L572.3 203.3L579 202.4L585.7 201.5L592.4 200.7L599.2 199.8L605.9 198.9L612.6 198L619.3 197.1L626.1 196.3L632.8 195.4L639.5 194.5L646.2 193.6L652.9 192.8L659.7 191.9L666.4 191L673.1 190.1L679.8 189.2L686.5 188.4L693.3 187.5L700 186.6L706.7 185.7L713.4 184.8L720.1 184L726.9 183.1L733.6 182.2L740.3 181.3L747 180.4L753.7 179.6L760.5 178.7L767.2 177.8L773.9 176.9L780.6 176.1L787.3 175.2L794.1 174.3L800.8 173.4L807.5 172.5L814.2 171.7L820.9 170.8L827.7 169.9L834.4 169L841.1 168.1L847.8 167.3L854.6 166.4L861.3 165.5L868 164.6L874.7 163.7L881.4 162.9L888.2 162L894.9 161.1L901.6 160.2L908.3 159.3L915 158.5L921.8 157.6L928.5 156.7" fill="none" stroke="#E34902" stroke-width="2" stroke-linejoin="bevel"></path>
</g>
<defs >
<clipPath id="zr0-c0">
<path d="M57 59l876 0l0 213l-876 0Z" fill="#000"></path>
</clipPath>
</defs>
</svg>