<svg width="1000" height="300" xmlns="http://www.w3.org/2000/svg" xmlns:xlink="http://www.w3.org/1999/xlink" version="1.1" baseProfile="full" viewBox="0 0 1000 300">
<rect width="1000" height="300" x="0" y="0" id="0" fill="#ffffff"></rect>
<path d="M58.2 271.5L931.8 271.5" fill="none" stroke="#E0E6F1"></path>
<path d="M58.2 224.5L931.8 224.5" fill="none" stroke="#E0E6F1"></path>
<path d="M58.2 177.5L931.8 177.5" fill="none" stroke="#E0E6F1"></path>
<path d="M58.2 130.5L931.8 130.5" fill="none" stroke="#E0E6F1"></path>
<path d="M58.2 83.5L931.8 83.5" fill="none" stroke="#E0E6F1"></path>
<path d="M58.2 60.5L931.8 60.5" fill="none" stroke="#E0E6F1"></path>
<path d="M58.2 271.5L931.8 271.5" fill="none" stroke="#6E7079" stroke-linecap="round"></path>
<path d="M61.5 271L61.5 276" fill="none" stroke="#6E7079"></path>
<path d="M108.5 271L108.5 276" fill="none" stroke="#6E7079"></path>
<path d="M155.5 271L155.5 276" fill="none" stroke="#6E7079"></path>
<path d="M202.5 271L202.5 276" fill="none" stroke="#6E7079"></path>
<path d="M249.5 271L249.5 276" fill="none" stroke="#6E7079"></path>
<path d="M296.5 271L296.5 276" fill="none" stroke="#6E7079"></path>
<path d="M344.5 271L344.5 276" fill="none" stroke="#6E7079"></path>
<path d="M391.5 271L391.5 276" fill="none" stroke="#6E7079"></path>
<path d="M438.5 271L438.5 276" fill="none" stroke="#6E7079"></path>
<path d="M485.5 271L485.5 276" fill="none" stroke="#6E7079"></path>
<path d="M532.5 271L532.5 276" fill="none" stroke="#6E7079"></path>
<path d="M579.5 271L579.5 276" fill="none" stroke="#6E7079"></path>
<path d="M626.5 271L626.5 276" fill="none" stroke="#6E7079"></path>
<path d="M673.5 271L673.5 276" fill="none" stroke="#6E7079"></path>
<path d="M720.5 271L720.5 276" fill="none" stroke="#6E7079"></path>
<path d="M767.5 271L767.5 276" fill="none" stroke="#6E7079"></path>
<path d="M814.5 271L814.5 276" fill="none" stroke="#6E7079"></path>
<path d="M861.5 271L861.5 276" fill="none" stroke="#6E7079"></path>
<path d="M908.5 271L908.5 276" fill="none" stroke="#6E7079"></path>
<text dominant-baseline="central" text-anchor="end" style="font-size:12px;font-family:sans-serif;" transform="translate(50.16 271)" fill="#6E7079">0</text>
<text dominant-baseline="central" text-anchor="end" style="font-size:12px;font-family:sans-serif;" transform="translate(50.16 224.1111)" fill="#6E7079">60</text>
<text dominant-baseline="central" text-anchor="end" style="font-size:12px;font-family:sans-serif;" transform="translate(50.16 177.2222)" fill="#6E7079">120</text>
<text dominant-baseline="central" text-anchor="end" style="font-size:12px;font-family:sans-serif;" transform="translate(50.16 130.3333)" fill="#6E7079">180</text>
<text dominant-baseline="central" text-anchor="end" style="font-size:12px;font-family:sans-serif;" transform="translate(50.16 83.4444)" fill="#6E7079">240</text>
<text dominant-baseline="central" text-anchor="end" style="font-size:12px;font-family:sans-serif;" transform="translate(50.16 60)" fill="#6E7079">270</text>
<text dominant-baseline="central" text-anchor="start" style="font-size:12px;font-family:sans-serif;" transform="translate(939.84 271)" fill="#6E7079">0</text>
<text dominant-baseline="central" text-anchor="start" style="font-size:12px;font-family:sans-serif;" transform="translate(939.84 224.1111)" fill="#6E7079">60</text>
<text dominant-baseline="central" text-anchor="start" style="font-size:12px;font-family:sans-serif;" transform="translate(939.84 177.2222)" fill="#6E7079">120</text>
<text dominant-baseline="central" text-anchor="start" style="font-size:12px;font-family:sans-serif;" transform="translate(939.84 130.3333)" fill="#6E7079">180</text>
<text dominant-baseline="central" text-anchor="start" style="font-size:12px;font-family:sans-serif;" transform="translate(939.84 83.4444)" fill="#6E7079">240</text>
<text dominant-baseline="central" text-anchor="start" style="font-size:12px;font-family:sans-serif;" transform="translate(939.84 60)" fill="#6E7079">270</text>
<text dominant-baseline="central" text-anchor="middle" style="font-size:12px;font-family:sans-serif;" y="6" transform="translate(61.5203 279)" fill="#6E7079">1km</text>
<text dominant-baseline="central" text-anchor="middle" style="font-size:12px;font-family:sans-serif;" y="6" transform="translate(108.5646 279)" fill="#6E7079">8km</text>
<text dominant-baseline="central" text-anchor="middle" style="font-size:12px;font-family:sans-serif;" y="6" transform="translate(155.6089 279)" fill="#6E7079">15km</text>
<text dominant-baseline="central" text-anchor="middle" style="font-size:12px;font-family:sans-serif;" y="6" transform="translate(202.6532 279)" fill="#6E7079">22km</text>
<text dominant-baseline="central" text-anchor="middle" style="font-size:12px;font-family:sans-serif;" y="6" transform="translate(249.6975 279)" fill="#6E7079">29km</text>
<text dominant-baseline="central" text-anchor="middle" style="font-size:12px;font-family:sans-serif;" y="6" transform="translate(296.7418 279)" fill="#6E7079">36km</text>
<text dominant-baseline="central" text-anchor="middle" style="font-size:12px;font-family:sans-serif;" y="6" transform="translate(343.7862 279)" fill="#6E7079">43km</text>
<text dominant-baseline="central" text-anchor="middle" style="font-size:12px;font-family:sans-serif;" y="6" transform="translate(390.8305 279)" fill="#6E7079">50km</text>
<text dominant-baseline="central" text-anchor="middle" style="font-size:12px;font-family:sans-serif;" y="6" transform="translate(437.8748 279)" fill="#6E7079">57km</text>
<text dominant-baseline="central" text-anchor="middle" style="font-size:12px;font-family:sans-serif;" y="6" transform="translate(484.9191 279)" fill="#6E7079">64km</text>
<text dominant-baseline="central" text-anchor="middle" style="font-size:12px;font-family:sans-serif;" y="6" transform="translate(531.9634 279)" fill="#6E7079">71km</text>
<text dominant-baseline="central" text-anchor="middle" style="font-size:12px;font-family:sans-serif;" y="6" transform="translate(579.0077 279)" fill="#6E7079">78km</text>
<text dominant-baseline="central" text-anchor="middle" style="font-size:12px;font-family:sans-serif;" y="6" transform="translate(626.052 279)" fill="#6E7079">85km</text>
<text dominant-baseline="central" text-anchor="middle" style="font-size:12px;font-family:sans-serif;" y="6" transform="translate(673.0963 279)" fill="#6E7079">92km</text>
<text dominant-baseline="central" text-anchor="middle" style="font-size:12px;font-family:sans-serif;" y="6" transform="translate(720.1406 279)" fill="#6E7079">99km</text>
<text dominant-baseline="central" text-anchor="middle" style="font-size:12px;font-family:sans-serif;" y="6" transform="translate(767.1849 279)" fill="#6E7079">106km</text>
<text dominant-baseline="central" text-anchor="middle" style="font-size:12px;font-family:sans-serif;" y="6" transform="translate(814.2292 279)" fill="#6E7079">113km</text>
<text dominant-baseline="central" text-anchor="middle" style="font-size:12px;font-family:sans-serif;" y="6" transform="translate(861.2735 279)" fill="#6E7079">120km</text>
<text dominant-baseline="central" text-anchor="middle" style="font-size:12px;font-family:sans-serif;" y="6" transform="translate(908.3178 279)" fill="#6E7079">127km</text>
<path d="M59.2 271l4.6 0l0 -193l-4.6 0Z" fill="rgb(227,73,2)" fill-opacity="0.3"></path>
<path d="M65.9 271l4.6 0l0 -193l-4.6 0Z" fill="rgb(227,73,2)" fill-opacity="0.3"></path>
<path d="M72.6 271l4.6 0l0 -193l-4.6 0Z" fill="rgb(227,73,2)" fill-opacity="0.3"></path>
<path d="M79.4 271l4.6 0l0 -193l-4.6 0Z" fill="rgb(227,73,2)" fill-opacity="0.3"></path>
<path d="M86.1 271l4.6 0l0 -193l-4.6 0Z" fill="rgb(227,73,2)" fill-opacity="0.3"></path>
<path d="M92.8 271l4.6 0l0 -191.5l-4.6 0Z" fill="rgb(227,73,2)" fill-opacity="0.3"></path>
<path d="M99.5 271l4.6 0l0 -191.5l-4.6 0Z" fill="rgb(227,73,2)" fill-opacity="0.3"></path>
<path d="M106.2 271l4.6 0l0 -189.9l-4.6 0Z" fill="rgb(227,73,2)" fill-opacity="0.3"></path>
<path d="M113 271l4.6 0l0 -189.9l-4.6 0Z" fill="rgb(227,73,2)" fill-opacity="0.3"></path>
<path d="M119.7 271l4.6 0l0 -189.1l-4.6 0Z" fill="rgb(227,73,2)" fill-opacity="0.3"></path>
<path d="M126.4 271l4.6 0l0 -186l-4.6 0Z" fill="rgb(227,73,2)" fill-opacity="0.3"></path>
<path d="M133.1 271l4.6 0l0 -184.4l-4.6 0Z" fill="rgb(227,73,2)" fill-opacity="0.3"></path>
<path d="M139.8 271l4.6 0l0 -183.6l-4.6 0Z" fill="rgb(227,73,2)" fill-opacity="0.3"></path>
<path d="M146.6 271l4.6 0l0 -181.3l-4.6 0Z" fill="rgb(227,73,2)" fill-opacity="0.3"></path>
<path d="M153.3 271l4.6 0l0 -177.4l-4.6 0Z" fill="rgb(227,73,2)" fill-opacity="0.3"></path>
<path d="M160 271l4.6 0l0 -168l-4.6 0Z" fill="rgb(227,73,2)" fill-opacity="0.3"></path>
<path d="M166.7 271l4.6 0l0 -154.7l-4.6 0Z" fill="rgb(227,73,2)" fill-opacity="0.3"></path>
<path d="M173.5 271l4.6 0l0 -146.9l-4.6 0Z" fill="rgb(227,73,2)" fill-opacity="0.3"></path>
<path d="M180.2 271l4.6 0l0 -134.4l-4.6 0Z" fill="rgb(227,73,2)" fill-opacity="0.3"></path>
<path d="M186.9 271l4.6 0l0 -132.9l-4.6 0Z" fill="rgb(227,73,2)" fill-opacity="0.3"></path>
<path d="M193.6 271l4.6 0l0 -127.4l-4.6 0Z" fill="rgb(227,73,2)" fill-opacity="0.3"></path>
<path d="M200.3 271l4.6 0l0 -121.1l-4.6 0Z" fill="rgb(227,73,2)" fill-opacity="0.3"></path>
<path d="M207.1 271l4.6 0l0 -115.7l-4.6 0Z" fill="rgb(227,73,2)" fill-opacity="0.3"></path>
<path d="M213.8 271l4.6 0l0 -103.9l-4.6 0Z" fill="rgb(227,73,2)" fill-opacity="0.3"></path>
<path d="M220.5 271l4.6 0l0 -93l-4.6 0Z" fill="rgb(227,73,2)" fill-opacity="0.3"></path>
<path d="M227.2 271l4.6 0l0 -81.3l-4.6 0Z" fill="rgb(227,73,2)" fill-opacity="0.3"></path>
<path d="M233.9 271l4.6 0l0 -69.6l-4.6 0Z" fill="rgb(227,73,2)" fill-opacity="0.3"></path>
<path d="M240.7 271l4.6 0l0 -58.6l-4.6 0Z" fill="rgb(227,73,2)" fill-opacity="0.3"></path>
<path d="M247.4 271l4.6 0l0 -55.5l-4.6 0Z" fill="rgb(227,73,2)" fill-opacity="0.3"></path>
<path d="M254.1 271l4.6 0l0 -50l-4.6 0Z" fill="rgb(227,73,2)" fill-opacity="0.3"></path>
<path d="M260.8 271l4.6 0l0 -46.9l-4.6 0Z" fill="rgb(227,73,2)" fill-opacity="0.3"></path>
<path d="M267.5 271l4.6 0l0 -43.8l-4.6 0Z" fill="rgb(227,73,2)" fill-opacity="0.3"></path>
<path d="M274.3 271l4.6 0l0 -41.4l-4.6 0Z" fill="rgb(227,73,2)" fill-opacity="0.3"></path>
<path d="M281 271l4.6 0l0 -39.1l-4.6 0Z" fill="rgb(227,73,2)" fill-opacity="0.3"></path>
<path d="M287.7 271l4.6 0l0 -35.2l-4.6 0Z" fill="rgb(227,73,2)" fill-opacity="0.3"></path>
<path d="M294.4 271l4.6 0l0 -31.3l-4.6 0Z" fill="rgb(227,73,2)" fill-opacity="0.8"></path>
<path d="M301.1 271l4.6 0l0 -28.1l-4.6 0Z" fill="rgb(227,73,2)" fill-opacity="0.3"></path>
<path d="M307.9 271l4.6 0l0 -27.4l-4.6 0Z" fill="rgb(227,73,2)" fill-opacity="0.3"></path>
<path d="M314.6 271l4.6 0l0 -26.6l-4.6 0Z" fill="rgb(227,73,2)" fill-opacity="0.3"></path>
<path d="M321.3 271l4.6 0l0 -25l-4.6 0Z" fill="rgb(227,73,2)" fill-opacity="0.3"></path>
<path d="M328 271l4.6 0l0 -24.2l-4.6 0Z" fill="rgb(227,73,2)" fill-opacity="0.3"></path>
<path d="M334.7 271l4.6 0l0 -22.7l-4.6 0Z" fill="rgb(227,73,2)" fill-opacity="0.3"></path>
<path d="M341.5 271l4.6 0l0 -21.1l-4.6 0Z" fill="rgb(227,73,2)" fill-opacity="0.3"></path>
<path d="M348.2 271l4.6 0l0 -20.3l-4.6 0Z" fill="rgb(227,73,2)" fill-opacity="0.3"></path>
<path d="M354.9 271l4.6 0l0 -18.8l-4.6 0Z" fill="rgb(227,73,2)" fill-opacity="0.3"></path>
<path d="M361.6 271l4.6 0l0 -18.8l-4.6 0Z" fill="rgb(227,73,2)" fill-opacity="0.3"></path>
<path d="M368.4 271l4.6 0l0 -18.8l-4.6 0Z" fill="rgb(227,73,2)" fill-opacity="0.3"></path>
<path d="M375.1 271l4.6 0l0 -16.4l-4.6 0Z" fill="rgb(227,73,2)" fill-opacity="0.3"></path>
<path d="M381.8 271l4.6 0l0 -16.4l-4.6 0Z" fill="rgb(227,73,2)" fill-opacity="0.3"></path>
<path d="M388.5 271l4.6 0l0 -15.6l-4.6 0Z" fill="rgb(227,73,2)" fill-opacity="0.3"></path>
<path d="M395.2 271l4.6 0l0 -14.1l-4.6 0Z" fill="rgb(227,73,2)" fill-opacity="0.3"></path>
<path d="M402 271l4.6 0l0 -13.3l-4.6 0Z" fill="rgb(227,73,2)" fill-opacity="0.3"></path>
<path d="M408.7 271l4.6 0l0 -13.3l-4.6 0Z" fill="rgb(227,73,2)" fill-opacity="0.3"></path>
<path d="M415.4 271l4.6 0l0 -11.7l-4.6 0Z" fill="rgb(227,73,2)" fill-opacity="0.3"></path>
<path d="M422.1 271l4.6 0l0 -11.7l-4.6 0Z" fill="rgb(227,73,2)" fill-opacity="0.3"></path>
<path d="M428.8 271l4.6 0l0 -11.7l-4.6 0Z" fill="rgb(227,73,2)" fill-opacity="0.3"></path>
<path d="M435.6 271l4.6 0l0 -11.7l-4.6 0Z" fill="rgb(227,73,2)" fill-opacity="0.3"></path>
<path d="M442.3 271l4.6 0l0 -11.7l-4.6 0Z" fill="rgb(227,73,2)" fill-opacity="0.3"></path>
<path d="M449 271l4.6 0l0 -10.2l-4.6 0Z" fill="rgb(227,73,2)" fill-opacity="0.3"></path>
<path d="M455.7 271l4.6 0l0 -10.2l-4.6 0Z" fill="rgb(227,73,2)" fill-opacity="0.3"></path>
<path d="M462.4 271l4.6 0l0 -10.2l-4.6 0Z" fill="rgb(227,73,2)" fill-opacity="0.3"></path>
<path d="M469.2 271l4.6 0l0 -10.2l-4.6 0Z" fill="rgb(227,73,2)" fill-opacity="0.3"></path>
<path d="M475.9 271l4.6 0l0 -10.2l-4.6 0Z" fill="rgb(227,73,2)" fill-opacity="0.3"></path>
<path d="M482.6 271l4.6 0l0 -8.6l-4.6 0Z" fill="rgb(227,73,2)" fill-opacity="0.3"></path>
<path d="M489.3 271l4.6 0l0 -8.6l-4.6 0Z" fill="rgb(227,73,2)" fill-opacity="0.3"></path>
<path d="M496 271l4.6 0l0 -8.6l-4.6 0Z" fill="rgb(227,73,2)" fill-opacity="0.3"></path>
<path d="M502.8 271l4.6 0l0 -7.8l-4.6 0Z" fill="rgb(227,73,2)" fill-opacity="0.3"></path>
<path d="M509.5 271l4.6 0l0 -6.3l-4.6 0Z" fill="rgb(227,73,2)" fill-opacity="0.3"></path>
<path d="M516.2 271l4.6 0l0 -6.3l-4.6 0Z" fill="rgb(227,73,2)" fill-opacity="0.3"></path>
<path d="M522.9 271l4.6 0l0 -6.3l-4.6 0Z" fill="rgb(227,73,2)" fill-opacity="0.3"></path>
<path d="M529.6 271l4.6 0l0 -4.7l-4.6 0Z" fill="rgb(227,73,2)" fill-opacity="0.3"></path>
<path d="M536.4 271l4.6 0l0 -4.7l-4.6 0Z" fill="rgb(227,73,2)" fill-opacity="0.3"></path>
<path d="M543.1 271l4.6 0l0 -4.7l-4.6 0Z" fill="rgb(227,73,2)" fill-opacity="0.3"></path>
<path d="M549.8 271l4.6 0l0 -3.9l-4.6 0Z" fill="rgb(227,73,2)" fill-opacity="0.3"></path>
<path d="M556.5 271l4.6 0l0 -3.9l-4.6 0Z" fill="rgb(227,73,2)" fill-opacity="0.3"></path>
<path d="M563.2 271l4.6 0l0 -3.9l-4.6 0Z" fill="rgb(227,73,2)" fill-opacity="0.3"></path>
<path d="M570 271l4.6 0l0 -3.1l-4.6 0Z" fill="rgb(227,73,2)" fill-opacity="0.3"></path>
<path d="M576.7 271l4.6 0l0 -3.1l-4.6 0Z" fill="rgb(227,73,2)" fill-opacity="0.3"></path>
<path d="M583.4 271l4.6 0l0 -3.1l-4.6 0Z" fill="rgb(227,73,2)" fill-opacity="0.3"></path>
<path d="M590.1 271l4.6 0l0 -3.1l-4.6 0Z" fill="rgb(227,73,2)" fill-opacity="0.3"></path>
<path d="M596.9 271l4.6 0l0 -3.1l-4.6 0Z" fill="rgb(227,73,2)" fill-opacity="0.3"></path>
<path d="M603.6 271l4.6 0l0 -2.3l-4.6 0Z" fill="rgb(227,73,2)" fill-opacity="0.3"></path>
<path d="M610.3 271l4.6 0l0 -2.3l-4.6 0Z" fill="rgb(227,73,2)" fill-opacity="0.3"></path>
<path d="M617 271l4.6 0l0 -2.3l-4.6 0Z" fill="rgb(227,73,2)" fill-opacity="0.3"></path>
<path d="M623.7 271l4.6 0l0 -2.3l-4.6 0Z" fill="rgb(227,73,2)" fill-opacity="0.3"></path>
<path d="M630.5 271l4.6 0l0 -2.3l-4.6 0Z" fill="rgb(227,73,2)" fill-opacity="0.3"></path>
<path d="M637.2 271l4.6 0l0 -2.3l-4.6 0Z" fill="rgb(227,73,2)" fill-opacity="0.3"></path>
<path d="M643.9 271l4.6 0l0 -2.3l-4.6 0Z" fill="rgb(227,73,2)" fill-opacity="0.3"></path>
<path d="M650.6 271l4.6 0l0 -2.3l-4.6 0Z" fill="rgb(227,73,2)" fill-opacity="0.3"></path>
<path d="M657.3 271l4.6 0l0 -2.3l-4.6 0Z" fill="rgb(227,73,2)" fill-opacity="0.3"></path>
<path d="M664.1 271l4.6 0l0 -2.3l-4.6 0Z" fill="rgb(227,73,2)" fill-opacity="0.3"></path>
<path d="M670.8 271l4.6 0l0 -2.3l-4.6 0Z" fill="rgb(227,73,2)" fill-opacity="0.3"></path>
<path d="M677.5 271l4.6 0l0 -2.3l-4.6 0Z" fill="rgb(227,73,2)" fill-opacity="0.3"></path>
<path d="M684.2 271l4.6 0l0 -2.3l-4.6 0Z" fill="rgb(227,73,2)" fill-opacity="0.3"></path>
<path d="M690.9 271l4.6 0l0 -2.3l-4.6 0Z" fill="rgb(227,73,2)" fill-opacity="0.3"></path>
<path d="M697.7 271l4.6 0l0 -2.3l-4.6 0Z" fill="rgb(227,73,2)" fill-opacity="0.3"></path>
<path d="M704.4 271l4.6 0l0 -2.3l-4.6 0Z" fill="rgb(227,73,2)" fill-opacity="0.3"></path>
<path d="M711.1 271l4.6 0l0 -2.3l-4.6 0Z" fill="rgb(227,73,2)" fill-opacity="0.3"></path>
<path d="M717.8 271l4.6 0l0 -2.3l-4.6 0Z" fill="rgb(227,73,2)" fill-opacity="0.3"></path>
<path d="M724.5 271l4.6 0l0 -2.3l-4.6 0Z" fill="rgb(227,73,2)" fill-opacity="0.3"></path>
<path d="M731.3 271l4.6 0l0 -2.3l-4.6 0Z" fill="rgb(227,73,2)" fill-opacity="0.3"></path>
<path d="M738 271l4.6 0l0 -2.3l-4.6 0Z" fill="rgb(227,73,2)" fill-opacity="0.3"></path>
<path d="M744.7 271l4.6 0l0 -2.3l-4.6 0Z" fill="rgb(227,73,2)" fill-opacity="0.3"></path>
<path d="M751.4 271l4.6 0l0 -2.3l-4.6 0Z" fill="rgb(227,73,2)" fill-opacity="0.3"></path>
<path d="M758.1 271l4.6 0l0 -2.3l-4.6 0Z" fill="rgb(227,73,2)" fill-opacity="0.3"></path>
<path d="M764.9 271l4.6 0l0 -2.3l-4.6 0Z" fill="rgb(227,73,2)" fill-opacity="0.3"></path>
<path d="M771.6 271l4.6 0l0 -2.3l-4.6 0Z" fill="rgb(227,73,2)" fill-opacity="0.3"></path>
<path d="M778.3 271l4.6 0l0 -2.3l-4.6 0Z" fill="rgb(227,73,2)" fill-opacity="0.3"></path>
<path d="M785 271l4.6 0l0 -2.3l-4.6 0Z" fill="rgb(227,73,2)" fill-opacity="0.3"></path>
<path d="M791.7 271l4.6 0l0 -2.3l-4.6 0Z" fill="rgb(227,73,2)" fill-opacity="0.3"></path>
<path d="M798.5 271l4.6 0l0 -2.3l-4.6 0Z" fill="rgb(227,73,2)" fill-opacity="0.3"></path>
<path d="M805.2 271l4.6 0l0 -2.3l-4.6 0Z" fill="rgb(227,73,2)" fill-opacity="0.3"></path>
<path d="M811.9 271l4.6 0l0 -1.6l-4.6 0Z" fill="rgb(227,73,2)" fill-opacity="0.3"></path>
<path d="M818.6 271l4.6 0l0 -1.6l-4.6 0Z" fill="rgb(227,73,2)" fill-opacity="0.3"></path>
<path d="M825.4 271l4.6 0l0 -1.6l-4.6 0Z" fill="rgb(227,73,2)" fill-opacity="0.3"></path>
<path d="M832.1 271l4.6 0l0 -1.6l-4.6 0Z" fill="rgb(227,73,2)" fill-opacity="0.3"></path>
<path d="M838.8 271l4.6 0l0 -1.6l-4.6 0Z" fill="rgb(227,73,2)" fill-opacity="0.3"></path>
<path d="M845.5 271l4.6 0l0 -1.6l-4.6 0Z" fill="rgb(227,73,2)" fill-opacity="0.3"></path>
<path d="M852.2 271l4.6 0l0 -1.6l-4.6 0Z" fill="rgb(227,73,2)" fill-opacity="0.3"></path>
<path d="M859 271l4.6 0l0 -1.6l-4.6 0Z" fill="rgb(227,73,2)" fill-opacity="0.3"></path>
<path d="M865.7 271l4.6 0l0 -1.6l-4.6 0Z" fill="rgb(227,73,2)" fill-opacity="0.3"></path>
<path d="M872.4 271l4.6 0l0 -1.6l-4.6 0Z" fill="rgb(227,73,2)" fill-opacity="0.3"></path>
<path d="M879.1 271l4.6 0l0 -1.6l-4.6 0Z" fill="rgb(227,73,2)" fill-opacity="0.3"></path>
<path d="M885.8 271l4.6 0l0 -1.6l-4.6 0Z" fill="rgb(227,73,2)" fill-opacity="0.3"></path>
<path d="M892.6 271l4.6 0l0 -1.6l-4.6 0Z" fill="rgb(227,73,2)" fill-opacity="0.3"></path>
<path d="M899.3 271l4.6 0l0 -1.6l-4.6 0Z" fill="rgb(227,73,2)" fill-opacity="0.3"></path>
<path d="M906 271l4.6 0l0 -1.6l-4.6 0Z" fill="rgb(227,73,2)" fill-opacity="0.3"></path>
<path d="M912.7 271l4.6 0l0 -1.6l-4.6 0Z" fill="rgb(227,73,2)" fill-opacity="0.3"></path>
<path d="M919.4 271l4.6 0l0 -0.8l-4.6 0Z" fill="rgb(227,73,2)" fill-opacity="0.3"></path>
<path d="M926.2 271l4.6 0l0 0l-4.6 0Z" fill="rgb(227,73,2)" fill-opacity="0.3"></path>
<path d="M-5 -5l226.9 0l0 24l-226.9 0Z" transform="translate(391.54 5)" fill="rgb(0,0,0)" fill-opacity="0" stroke="#ccc" stroke-width="0"></path>
<path d="M3.5 0L21.5 0A3.5 3.5 0 0 1 25 3.5L25 10.5A3.5 3.5 0 0 1 21.5 14L3.5 14A3.5 3.5 0 0 1 0 10.5L0 3.5A3.5 3.5 0 0 1 3.5 0" transform="translate(391.54 5)" fill="rgb(227,73,2)" fill-opacity="0.3"></path>
<text dominant-baseline="central" text-anchor="start" style="font-size:12px;font-family:sans-serif;" xml:space="preserve" x="30" y="7" transform="translate(391.54 5)" fill="#333">Times completed</text>
<path d="M0 7L25 7" transform="translate(524.1 5)" fill="#000" stroke="#E34902" stroke-width="2" stroke-linecap="butt" stroke-miterlimit="10"></path>
<path d="M18.1 7A5.6 5.6 0 1 1 18.1 6.4A5.6 5.6 0 0 1 18.1 7" transform="translate(524.1 5)" fill="#fff" stroke="#E34902" stroke-width="2" stroke-linecap="butt" stroke-miterlimit="10"></path>
<text dominant-baseline="central" text-anchor="start" style="font-size:12px;font-family:sans-serif;" x="30" y="7" transform="translate(524.1 5)" fill="#333">Eddington</text>
<path d="M-0.54 -0.89A0.6 0.6 0 1 1 0.54 -0.89C0.39 -0.56 0 -0.42 0 0C0 -0.42 -0.39 -0.56 -0.54 -0.89Z" transform="matrix(25,0,0,25,296.7418,235.5222)" fill="rgb(227,73,2)" fill-opacity="0.8"></path>
<text dominant-baseline="central" text-anchor="middle" style="font-size:12px;font-family:sans-serif;" transform="translate(296.7418 209.3794)" fill="#eee" stroke="rgb(227,73,2)" stroke-width="2" paint-order="stroke" stroke-opacity="0.8" stroke-miterlimit="2">36</text>
<g clip-path="url(#zr0-c0)">
<path d="M61.5 270.2L68.2 269.4L75 268.7L81.7 267.9L88.4 267.1L95.1 266.3L101.8 265.5L108.6 264.7L115.3 264L122 263.2L128.7 262.4L135.4 261.6L142.2 260.8L148.9 260.1L155.6 259.3L162.3 258.5L169.1 257.7L175.8 256.9L182.5 256.2L189.2 255.4L195.9 254.6L202.7 253.8L209.4 253L216.1 252.2L222.8 251.5L229.5 250.7L236.3 249.9L243 249.1L249.7 248.3L256.4 247.6L263.1 246.8L269.9 246L276.6 245.2L283.3 244.4L290 243.6L296.7 242.9L303.5 242.1L310.2 241.3L316.9 240.5L323.6 239.7L330.3 239L337.1 238.2L343.8 237.4L350.5 236.6L357.2 235.8L363.9 235.1L370.7 234.3L377.4 233.5L384.1 232.7L390.8 231.9L397.6 231.1L404.3 230.4L411 229.6L417.7 228.8L424.4 228L431.2 227.2L437.9 226.5L444.6 225.7L451.3 224.9L458 224.1L464.8 223.3L471.5 222.5L478.2 221.8L484.9 221L491.6 220.2L498.4 219.4L505.1 218.6L511.8 217.9L518.5 217.1L525.2 216.3L532 215.5L538.7 214.7L545.4 214L552.1 213.2L558.8 212.4L565.6 211.6L572.3 210.8L579 210L585.7 209.3L592.4 208.5L599.2 207.7L605.9 206.9L612.6 206.1L619.3 205.4L626.1 204.6L632.8 203.8L639.5 203L646.2 202.2L652.9 201.4L659.7 200.7L666.4 199.9L673.1 199.1L679.8 198.3L686.5 197.5L693.3 196.8L700 196L706.7 195.2L713.4 194.4L720.1 193.6L726.9 192.9L733.6 192.1L740.3 191.3L747 190.5L753.7 189.7L760.5 188.9L767.2 188.2L773.9 187.4L780.6 186.6L787.3 185.8L794.1 185L800.8 184.3L807.5 183.5L814.2 182.7L820.9 181.9L827.7 181.1L834.4 180.3L841.1 179.6L847.8 178.8L854.6 178L861.3 177.2L868 176.4L874.7 175.7L881.4 174.9L888.2 174.1L894.9 173.3L901.6 172.5L908.3 171.8L915 171L921.8 170.2L928.5 169.4" fill="none" stroke="#E34902" stroke-width="2" stroke-linejoin="bevel"></path>
</g>
<defs >
<clipPath id="zr0-c0">
<path d="M57 59l876 0l0 213l-876 0Z" fill="#000"></path>
</clipPath>
</defs>
</svg>